<svg width="60" height="60" viewBox="0 0 60 60" fill="none" xmlns="http://www.w3.org/2000/svg">
<path fill-rule="evenodd" clip-rule="evenodd" d="M50 2.5C54.1423 2.5 57.5 5.85788 57.5 10V50C57.5 54.1423 54.1423 57.5 50 57.5H10C5.85788 57.5 2.5 54.1423 2.5 50V10C2.5 5.85788 5.85788 2.5 10 2.5H50ZM50 7.5C51.3807 7.5 52.5 8.6193 52.5 10V50C52.5 51.3807 51.3807 52.5 50 52.5H37.5V34.9997H42.6905C43.7665 34.9997 44.7218 34.3113 45.0623 33.2903L46.1697 29.9677C46.5745 28.7535 45.6707 27.4997 44.391 27.4997H37.5V22.4998C37.5 21.2498 38.75 19.9998 40 19.9998H45C46.3807 19.9998 47.5 18.8805 47.5 17.4998V15.7848C47.5 14.9773 46.9843 14.2532 46.2033 14.0472C42.9263 13.1824 40 13.1824 40 13.1824C33.75 13.1824 30 17.4998 30 21.2498V27.4997H25C23.6193 27.4997 22.5 28.619 22.5 29.9997V32.4997C22.5 33.8805 23.6193 34.9997 25 34.9997H30V52.5H10C8.6193 52.5 7.5 51.3807 7.5 50V10C7.5 8.6193 8.6193 7.5 10 7.5H50Z" fill="white"/>
</svg>
