<svg width="60" height="60" viewBox="0 0 60 60" fill="none" xmlns="http://www.w3.org/2000/svg">
<path d="M57.5759 18.2007L50.5062 25.2705C49.0947 41.6488 35.2824 54.3749 18.75 54.3749C15.3458 54.3749 12.5404 53.8352 10.4115 52.7707C8.69339 51.9117 7.98958 50.9896 7.81494 50.7274C7.65827 50.4924 7.55671 50.2251 7.51786 49.9453C7.479 49.6655 7.50385 49.3806 7.59055 49.1118C7.67724 48.843 7.82355 48.5972 8.01854 48.3929C8.21353 48.1886 8.45217 48.0309 8.71662 47.9318C8.77693 47.909 14.306 45.7854 17.8796 41.7422C15.6568 40.1594 13.7005 38.2325 12.0843 36.034C8.87146 31.6738 5.4735 24.1017 7.53022 12.7895C7.59143 12.4528 7.74361 12.1393 7.97025 11.883C8.19689 11.6266 8.48936 11.4372 8.81598 11.3351C9.14259 11.2331 9.4909 11.2224 9.82316 11.3042C10.1554 11.386 10.459 11.5571 10.7009 11.7991C10.7835 11.8815 18.5858 19.5735 28.1237 22.0582L28.125 20.624C28.1452 17.6219 29.3566 14.7508 31.4929 12.6415C33.6292 10.5323 36.5155 9.35762 39.5176 9.37569C41.4678 9.4027 43.3777 9.93508 45.0607 10.9208C46.7436 11.9066 48.1422 13.312 49.1196 14.9998L56.25 14.9999C56.6208 14.9999 56.9833 15.1099 57.2917 15.3159C57.6 15.5219 57.8404 15.8147 57.9823 16.1573C58.1242 16.4999 58.1614 16.8769 58.089 17.2406C58.0167 17.6044 57.8381 17.9385 57.5759 18.2007Z" fill="white"/>
</svg>
